<svg id="Component_25_1" data-name="Component 25 – 1" xmlns="http://www.w3.org/2000/svg" width="211" height="48.679" viewBox="0 0 211 48.679">
  <path id="Path_1" data-name="Path 1" d="M116.612,98.779c-3.832,0-6.83,1.334-8.385,5.721l-4.856,14.159-.092.263-3.834,10.963a9,9,0,0,0,2.814.382c4.39,0,5.443-2,6.5-4.945l4.688-14.049c.277-.833.555-1.333.833-1.333.391,0,.611.391.611,1.224l-.334,18.2h10V104.777c0-2.942-1.5-6-7.941-6" transform="translate(-79.629 -83.633)" fill="#1c4096"/>
  <path id="Path_2" data-name="Path 2" d="M82.07,104.777v24.583h10l-.334-18.2c0-.833.221-1.223.612-1.223.277,0,.554.5.833,1.333l4.688,14.049c1.056,2.945,2.109,4.944,6.5,4.944a8.978,8.978,0,0,0,2.815-.382l-3.835-10.963-.092-.262L98.4,104.5c-1.554-4.387-4.554-5.721-8.385-5.721-6.44,0-7.941,3.055-7.941,6" transform="translate(-82.07 -83.633)" fill="#00acee"/>
  <path id="Path_3" data-name="Path 3" d="M145.662,99.789c5.831,0,9.107,3.775,9.107,9.328v14.549c0,3.72-1.832,5.553-5.553,5.553H132.725c-5.331,0-7.274-3.054-7.274-9.218,0-5.552,2-9.161,7.274-9.161h13.382v-1.277c0-2.388-1.221-3.554-3.72-3.554H127.505V99.789Zm-8.828,17.047c-1.721,0-2.609,1.055-2.609,3.221,0,1.943.777,3.165,2.553,3.165h7.386a1.733,1.733,0,0,0,1.943-1.943v-4.442Z" transform="translate(-75.976 -83.49)" fill="#1c4096"/>
  <path id="Path_4" data-name="Path 4" d="M155.247,105.341c0-3.943,1.943-5.553,5.553-5.553h11.994c6.941,0,11.55,3.11,11.55,10.606v18.823h-8.663v-16.6c0-4.442-1.665-6.441-6.107-6.441h-3.721a1.733,1.733,0,0,0-1.943,1.943v21.1h-8.662Z" transform="translate(-71.791 -83.491)" fill="#1c4096"/>
  <path id="Path_5" data-name="Path 5" d="M184.848,91.511h8.662v6.331h-8.662Zm0,9.44h8.662v29.43h-8.662Z" transform="translate(-67.633 -84.653)" fill="#1c4096"/>
  <path id="Path_6" data-name="Path 6" d="M247.007,106.738c0-1.979.659-2.832,2.845-2.832,1.927,0,2.807.647,2.807,2.832,0,2.082-.763,2.872-2.923,2.872-1.9,0-2.729-.8-2.729-2.872m5.005.039c0-1.551-.4-2.3-2.121-2.3-1.513,0-2.238.492-2.238,2.25,0,1.5.375,2.315,2.069,2.315,1.566,0,2.29-.5,2.29-2.264m-3.6,1.462V105.6c0-.3.1-.466.569-.466h1.383c.66,0,.88.31.88,1.048,0,.841-.389.931-.673.931h-.3l1.073,1.126h-.828l-.918-.983a.43.43,0,0,1-.116-.323c0-.2.091-.285.271-.285h.375c.324,0,.427-.051.427-.453,0-.31-.039-.492-.4-.492h-.854c-.168,0-.245.026-.245.246v2.289Z" transform="translate(-58.902 -82.912)" fill="#244a93"/>
  <path id="Path_7" data-name="Path 7" d="M204.433,105.47c-2.137,0-2.346,1.286-2.346,3.025s.209,3.059,2.346,3.059H208v1.564h-4.067c-3.128,0-3.945-1.842-3.945-4.622,0-2.763.816-4.589,3.945-4.589h3.858v1.565Z" transform="translate(-65.507 -82.912)" fill="#878787"/>
  <path id="Path_8" data-name="Path 8" d="M208.076,107.382c0-2.485,1.234-3.476,3.719-3.476h1.373v1.565h-.851c-1.651,0-2.208.8-2.208,2.45v5.2h-2.033Z" transform="translate(-64.37 -82.912)" fill="#878787"/>
  <path id="Path_9" data-name="Path 9" d="M217.761,116.089h-2.068l1.407-3.006-4.1-9.177h2.1l2.955,7.073,3.128-7.073h2.069Z" transform="translate(-63.679 -82.912)" fill="#878787"/>
  <path id="Path_10" data-name="Path 10" d="M227.318,103.906c2.955,0,3.772,1.825,3.772,4.588,0,2.78-.817,4.623-3.772,4.623h-2.746v2.954h-2.033v-10.6a1.382,1.382,0,0,1,1.565-1.564Zm-2.746,7.647h2.242c1.964,0,2.173-1.321,2.173-3.059s-.209-3.025-2.173-3.025h-1.721c-.347,0-.521.156-.521.453Z" transform="translate(-62.339 -82.912)" fill="#878787"/>
  <path id="Path_11" data-name="Path 11" d="M235.152,113.48c-2.086,0-3.389-.73-3.389-3.005v-4.641h-1.268V104.27h1.268v-2.955H233.8v2.955h2.624v1.565H233.8v4.222c0,1.391.73,1.86,2.12,1.86h.5v1.564Z" transform="translate(-61.221 -83.276)" fill="#878787"/>
  <path id="Path_12" data-name="Path 12" d="M245.8,108.507c0,3.684-1.617,4.727-4.9,4.727s-4.9-1.044-4.9-4.727c0-3.668,1.617-4.693,4.9-4.693s4.9,1.025,4.9,4.693m-4.9,3.163c2.086,0,2.8-.886,2.8-3.163,0-2.26-.713-3.129-2.8-3.129s-2.8.869-2.8,3.129c0,2.276.713,3.163,2.8,3.163" transform="translate(-60.449 -82.925)" fill="#878787"/>
  <path id="Path_13" data-name="Path 13" d="M203.46,126.663c-2.955,0-3.476-1.651-3.476-4.623,0-3.668,1.321-4.693,4.449-4.693,2.59,0,4.432.7,4.432,3.649,0,1.044-.382,1.738-1.424,1.738h-5.353c0,1.39.226,2.364,1.981,2.364h4.5v1.565Zm2.85-5.492c.4,0,.452-.278.452-.538,0-1.217-1.112-1.721-2.329-1.721-1.738,0-2.346.677-2.346,2.259Z" transform="translate(-65.507 -81.024)" fill="#878787"/>
  <path id="Path_14" data-name="Path 14" d="M215.037,126.65l-2.329-3.407L210.4,126.65h-2.381l3.529-4.727-3.3-4.484h2.312l2.155,3.164,2.154-3.164h2.312l-3.285,4.484,3.529,4.727Z" transform="translate(-64.379 -81.012)" fill="#878787"/>
  <path id="Path_15" data-name="Path 15" d="M220.953,119c-2.137,0-2.346,1.286-2.346,3.025s.209,3.059,2.346,3.059h3.563v1.564h-4.067c-3.128,0-3.945-1.842-3.945-4.622,0-2.763.817-4.589,3.945-4.589h3.858V119Z" transform="translate(-63.186 -81.012)" fill="#878787"/>
  <path id="Path_16" data-name="Path 16" d="M224.6,114.848h2.033V117.8h2.763c2.086,0,3.58.713,3.58,3.147v6.065h-2.033v-5.527c0-1.39-.538-2.12-1.929-2.12h-2.381v7.647H224.6Z" transform="translate(-62.05 -81.375)" fill="#878787"/>
  <path id="Path_17" data-name="Path 17" d="M239.009,117.439a2.434,2.434,0,0,1,2.589,2.711v4.936a1.383,1.383,0,0,1-1.564,1.565h-4.641c-1.582,0-2.295-.939-2.295-2.868,0-1.738.713-2.867,2.295-2.867h4.172v-.592A1.152,1.152,0,0,0,238.279,119h-4.5v-1.564Zm-2.833,5.04c-.7,0-.973.417-.973,1.3s.277,1.3.973,1.3h2.867a.461.461,0,0,0,.522-.521v-2.086Z" transform="translate(-60.855 -81.012)" fill="#878787"/>
  <path id="Path_18" data-name="Path 18" d="M241.953,119a1.383,1.383,0,0,1,1.565-1.565h3.232c2.086,0,3.58.713,3.58,3.147v6.065H248.3v-5.527c0-1.39-.538-2.12-1.929-2.12h-1.86a.461.461,0,0,0-.521.521v7.126h-2.033Z" transform="translate(-59.612 -81.012)" fill="#878787"/>
  <path id="Path_19" data-name="Path 19" d="M254.229,126.65c-2.972,0-3.772-1.842-3.772-4.622,0-2.763.8-4.589,3.772-4.589h3.424A1.383,1.383,0,0,1,259.217,119v6.935c0,2.624-1.2,3.753-3.98,3.753H251.1v-1.564h4.137a1.715,1.715,0,0,0,1.947-1.478Zm.5-7.647c-1.964,0-2.173,1.286-2.173,3.025s.209,3.059,2.173,3.059h2.451v-5.562a.461.461,0,0,0-.521-.521Z" transform="translate(-58.417 -81.012)" fill="#878787"/>
  <path id="Path_20" data-name="Path 20" d="M262.771,126.663c-2.955,0-3.476-1.651-3.476-4.623,0-3.668,1.321-4.693,4.449-4.693,2.59,0,4.432.7,4.432,3.649,0,1.044-.382,1.738-1.424,1.738H261.4c0,1.39.226,2.364,1.981,2.364h4.5v1.565Zm2.85-5.492c.4,0,.452-.278.452-.538,0-1.217-1.112-1.721-2.329-1.721-1.738,0-2.346.677-2.346,2.259Z" transform="translate(-57.176 -81.024)" fill="#878787"/>
  <path id="Path_21" data-name="Path 21" d="M94.593,91.651A6.152,6.152,0,1,1,88.441,85.5a6.153,6.153,0,0,1,6.153,6.153" transform="translate(-82.039 -85.498)" fill="#00acee"/>
  <path id="Path_22" data-name="Path 22" d="M122.757,91.651A6.152,6.152,0,1,1,116.6,85.5a6.153,6.153,0,0,1,6.153,6.153" transform="translate(-78.083 -85.498)" fill="#1c4096"/>
</svg>
